<mxfile host="app.diagrams.net" modified="2024-07-12T13:56:44.168Z" agent="Mozilla/5.0 (Windows NT 10.0; Win64; x64) AppleWebKit/537.36 (KHTML, like Gecko) Chrome/122.0.0.0 Safari/537.36 Edg/122.0.0.0" etag="4jbzeVLKvbAQzdj-KRJR" version="24.6.3" type="device">
  <diagram name="第 1 页" id="xm0eFg5_4zgP-Fz_bVK0">
    <mxGraphModel dx="1607" dy="868" grid="1" gridSize="10" guides="1" tooltips="1" connect="1" arrows="1" fold="1" page="1" pageScale="1" pageWidth="827" pageHeight="1169" math="0" shadow="0">
      <root>
        <mxCell id="0" />
        <mxCell id="1" parent="0" />
        <mxCell id="LdxBgr8YAQ7VwyfjZo5r-1" value="" style="rounded=0;whiteSpace=wrap;html=1;" vertex="1" parent="1">
          <mxGeometry x="265" y="20" width="370" height="210" as="geometry" />
        </mxCell>
        <mxCell id="LdxBgr8YAQ7VwyfjZo5r-2" value="&lt;font style=&quot;font-size: 18px;&quot;&gt;服务注册中心客户端&lt;/font&gt;&lt;div&gt;&lt;font size=&quot;3&quot;&gt;（ServiceRegistryClient）&lt;/font&gt;&lt;/div&gt;" style="rounded=0;whiteSpace=wrap;html=1;" vertex="1" parent="1">
          <mxGeometry x="255" y="350" width="355" height="130" as="geometry" />
        </mxCell>
        <mxCell id="LdxBgr8YAQ7VwyfjZo5r-6" value="" style="rounded=0;whiteSpace=wrap;html=1;" vertex="1" parent="1">
          <mxGeometry x="59" y="625" width="180" height="410" as="geometry" />
        </mxCell>
        <mxCell id="LdxBgr8YAQ7VwyfjZo5r-7" value="&lt;font style=&quot;font-size: 18px;&quot;&gt;服务发现&lt;/font&gt;&lt;div&gt;&lt;font size=&quot;3&quot;&gt;（discoverService）&lt;/font&gt;&lt;/div&gt;" style="rounded=0;whiteSpace=wrap;html=1;" vertex="1" parent="1">
          <mxGeometry x="83.5" y="660" width="131" height="60" as="geometry" />
        </mxCell>
        <mxCell id="LdxBgr8YAQ7VwyfjZo5r-8" value="&lt;font style=&quot;font-size: 24px;&quot;&gt;客户端&lt;/font&gt;" style="text;html=1;align=center;verticalAlign=middle;resizable=0;points=[];autosize=1;strokeColor=none;fillColor=none;" vertex="1" parent="1">
          <mxGeometry x="30" y="575" width="100" height="40" as="geometry" />
        </mxCell>
        <mxCell id="LdxBgr8YAQ7VwyfjZo5r-12" value="" style="rounded=0;whiteSpace=wrap;html=1;" vertex="1" parent="1">
          <mxGeometry x="580" y="630" width="190" height="405" as="geometry" />
        </mxCell>
        <mxCell id="LdxBgr8YAQ7VwyfjZo5r-13" value="&lt;font style=&quot;font-size: 24px;&quot;&gt;服务端&lt;/font&gt;" style="text;html=1;align=center;verticalAlign=middle;resizable=0;points=[];autosize=1;strokeColor=none;fillColor=none;" vertex="1" parent="1">
          <mxGeometry x="711.75" y="580" width="100" height="40" as="geometry" />
        </mxCell>
        <mxCell id="LdxBgr8YAQ7VwyfjZo5r-19" value="&lt;font style=&quot;font-size: 18px;&quot;&gt;负载均衡&lt;/font&gt;" style="rounded=0;whiteSpace=wrap;html=1;" vertex="1" parent="1">
          <mxGeometry x="490" y="40" width="120" height="60" as="geometry" />
        </mxCell>
        <mxCell id="LdxBgr8YAQ7VwyfjZo5r-20" value="&lt;span style=&quot;text-wrap: wrap;&quot;&gt;&lt;font style=&quot;font-size: 18px;&quot;&gt;服务注册中心服务端&lt;/font&gt;&lt;/span&gt;&lt;div style=&quot;text-wrap: wrap;&quot;&gt;&lt;font size=&quot;3&quot;&gt;（ServiceRegistryServer）&lt;/font&gt;&lt;/div&gt;" style="text;html=1;align=center;verticalAlign=middle;resizable=0;points=[];autosize=1;strokeColor=none;fillColor=none;" vertex="1" parent="1">
          <mxGeometry x="255" y="20" width="210" height="50" as="geometry" />
        </mxCell>
        <mxCell id="LdxBgr8YAQ7VwyfjZo5r-21" value="&lt;font style=&quot;font-size: 18px;&quot;&gt;心跳检测&lt;/font&gt;" style="rounded=0;whiteSpace=wrap;html=1;" vertex="1" parent="1">
          <mxGeometry x="490" y="140" width="120" height="60" as="geometry" />
        </mxCell>
        <mxCell id="LdxBgr8YAQ7VwyfjZo5r-24" value="" style="rounded=0;whiteSpace=wrap;html=1;" vertex="1" parent="1">
          <mxGeometry x="69" y="825" width="160" height="190" as="geometry" />
        </mxCell>
        <mxCell id="LdxBgr8YAQ7VwyfjZo5r-23" value="&lt;font style=&quot;font-size: 18px;&quot;&gt;RPC协议&lt;/font&gt;" style="text;html=1;align=center;verticalAlign=middle;resizable=0;points=[];autosize=1;strokeColor=none;fillColor=none;" vertex="1" parent="1">
          <mxGeometry x="70" y="825" width="100" height="40" as="geometry" />
        </mxCell>
        <mxCell id="LdxBgr8YAQ7VwyfjZo5r-25" value="&lt;font style=&quot;font-size: 14px;&quot;&gt;Json序列化&lt;/font&gt;" style="rounded=0;whiteSpace=wrap;html=1;" vertex="1" parent="1">
          <mxGeometry x="98.5" y="865" width="101.5" height="40" as="geometry" />
        </mxCell>
        <mxCell id="LdxBgr8YAQ7VwyfjZo5r-26" value="&lt;font style=&quot;font-size: 14px;&quot;&gt;协议编码&lt;/font&gt;" style="rounded=0;whiteSpace=wrap;html=1;" vertex="1" parent="1">
          <mxGeometry x="98.25" y="915" width="101.5" height="40" as="geometry" />
        </mxCell>
        <mxCell id="LdxBgr8YAQ7VwyfjZo5r-29" value="&lt;font style=&quot;font-size: 14px;&quot;&gt;TCP传输&lt;/font&gt;" style="rounded=0;whiteSpace=wrap;html=1;" vertex="1" parent="1">
          <mxGeometry x="98.5" y="965" width="101.5" height="40" as="geometry" />
        </mxCell>
        <mxCell id="LdxBgr8YAQ7VwyfjZo5r-30" value="" style="rounded=0;whiteSpace=wrap;html=1;" vertex="1" parent="1">
          <mxGeometry x="596" y="825" width="160" height="190" as="geometry" />
        </mxCell>
        <mxCell id="LdxBgr8YAQ7VwyfjZo5r-31" value="&lt;font style=&quot;font-size: 18px;&quot;&gt;RPC协议&lt;/font&gt;" style="text;html=1;align=center;verticalAlign=middle;resizable=0;points=[];autosize=1;strokeColor=none;fillColor=none;" vertex="1" parent="1">
          <mxGeometry x="590" y="825" width="100" height="40" as="geometry" />
        </mxCell>
        <mxCell id="LdxBgr8YAQ7VwyfjZo5r-32" value="&lt;font style=&quot;font-size: 14px;&quot;&gt;Json反序列化&lt;/font&gt;" style="rounded=0;whiteSpace=wrap;html=1;" vertex="1" parent="1">
          <mxGeometry x="620.25" y="865" width="101.5" height="40" as="geometry" />
        </mxCell>
        <mxCell id="LdxBgr8YAQ7VwyfjZo5r-33" value="&lt;font style=&quot;font-size: 14px;&quot;&gt;协议编码&lt;/font&gt;" style="rounded=0;whiteSpace=wrap;html=1;" vertex="1" parent="1">
          <mxGeometry x="620.25" y="915" width="101.5" height="40" as="geometry" />
        </mxCell>
        <mxCell id="LdxBgr8YAQ7VwyfjZo5r-34" value="&lt;font style=&quot;font-size: 14px;&quot;&gt;TCP传输&lt;/font&gt;" style="rounded=0;whiteSpace=wrap;html=1;" vertex="1" parent="1">
          <mxGeometry x="620.25" y="965" width="101.5" height="40" as="geometry" />
        </mxCell>
        <mxCell id="LdxBgr8YAQ7VwyfjZo5r-35" value="" style="endArrow=classic;html=1;rounded=0;entryX=0;entryY=0.25;entryDx=0;entryDy=0;exitX=1;exitY=0.25;exitDx=0;exitDy=0;" edge="1" parent="1" source="LdxBgr8YAQ7VwyfjZo5r-29" target="LdxBgr8YAQ7VwyfjZo5r-34">
          <mxGeometry width="50" height="50" relative="1" as="geometry">
            <mxPoint x="470" y="860" as="sourcePoint" />
            <mxPoint x="520" y="810" as="targetPoint" />
          </mxGeometry>
        </mxCell>
        <mxCell id="LdxBgr8YAQ7VwyfjZo5r-36" value="" style="endArrow=classic;html=1;rounded=0;entryX=1;entryY=0.75;entryDx=0;entryDy=0;exitX=0;exitY=0.75;exitDx=0;exitDy=0;" edge="1" parent="1" source="LdxBgr8YAQ7VwyfjZo5r-34" target="LdxBgr8YAQ7VwyfjZo5r-29">
          <mxGeometry width="50" height="50" relative="1" as="geometry">
            <mxPoint x="470" y="860" as="sourcePoint" />
            <mxPoint x="520" y="810" as="targetPoint" />
          </mxGeometry>
        </mxCell>
        <mxCell id="LdxBgr8YAQ7VwyfjZo5r-37" value="&lt;font style=&quot;font-size: 18px;&quot;&gt;线程池&lt;/font&gt;" style="rounded=0;whiteSpace=wrap;html=1;" vertex="1" parent="1">
          <mxGeometry x="611.5" y="720" width="129" height="90" as="geometry" />
        </mxCell>
        <mxCell id="LdxBgr8YAQ7VwyfjZo5r-38" value="" style="endArrow=classic;html=1;rounded=0;entryX=0.25;entryY=1;entryDx=0;entryDy=0;exitX=0.75;exitY=0;exitDx=0;exitDy=0;" edge="1" parent="1" source="LdxBgr8YAQ7VwyfjZo5r-6" target="LdxBgr8YAQ7VwyfjZo5r-2">
          <mxGeometry width="50" height="50" relative="1" as="geometry">
            <mxPoint x="190" y="670" as="sourcePoint" />
            <mxPoint x="240" y="620" as="targetPoint" />
          </mxGeometry>
        </mxCell>
        <mxCell id="LdxBgr8YAQ7VwyfjZo5r-39" value="" style="endArrow=classic;html=1;rounded=0;entryX=0.25;entryY=0;entryDx=0;entryDy=0;exitX=0.003;exitY=0.534;exitDx=0;exitDy=0;exitPerimeter=0;" edge="1" parent="1" source="LdxBgr8YAQ7VwyfjZo5r-2" target="LdxBgr8YAQ7VwyfjZo5r-6">
          <mxGeometry width="50" height="50" relative="1" as="geometry">
            <mxPoint x="470" y="730" as="sourcePoint" />
            <mxPoint x="520" y="680" as="targetPoint" />
          </mxGeometry>
        </mxCell>
        <mxCell id="LdxBgr8YAQ7VwyfjZo5r-40" value="" style="endArrow=classic;html=1;rounded=0;entryX=0.647;entryY=1.025;entryDx=0;entryDy=0;entryPerimeter=0;exitX=0.25;exitY=0;exitDx=0;exitDy=0;" edge="1" parent="1" source="LdxBgr8YAQ7VwyfjZo5r-12" target="LdxBgr8YAQ7VwyfjZo5r-2">
          <mxGeometry width="50" height="50" relative="1" as="geometry">
            <mxPoint x="470" y="730" as="sourcePoint" />
            <mxPoint x="520" y="680" as="targetPoint" />
          </mxGeometry>
        </mxCell>
        <mxCell id="LdxBgr8YAQ7VwyfjZo5r-41" value="" style="endArrow=classic;html=1;rounded=0;entryX=0.75;entryY=0;entryDx=0;entryDy=0;exitX=1;exitY=0.5;exitDx=0;exitDy=0;" edge="1" parent="1" source="LdxBgr8YAQ7VwyfjZo5r-2" target="LdxBgr8YAQ7VwyfjZo5r-12">
          <mxGeometry width="50" height="50" relative="1" as="geometry">
            <mxPoint x="470" y="730" as="sourcePoint" />
            <mxPoint x="520" y="680" as="targetPoint" />
          </mxGeometry>
        </mxCell>
        <mxCell id="LdxBgr8YAQ7VwyfjZo5r-42" value="" style="endArrow=classic;html=1;rounded=0;entryX=0.75;entryY=1;entryDx=0;entryDy=0;exitX=0.75;exitY=0;exitDx=0;exitDy=0;" edge="1" parent="1" source="LdxBgr8YAQ7VwyfjZo5r-2" target="LdxBgr8YAQ7VwyfjZo5r-1">
          <mxGeometry width="50" height="50" relative="1" as="geometry">
            <mxPoint x="470" y="330" as="sourcePoint" />
            <mxPoint x="520" y="280" as="targetPoint" />
          </mxGeometry>
        </mxCell>
        <mxCell id="LdxBgr8YAQ7VwyfjZo5r-43" value="" style="endArrow=classic;html=1;rounded=0;exitX=0.25;exitY=1;exitDx=0;exitDy=0;entryX=0.25;entryY=0;entryDx=0;entryDy=0;" edge="1" parent="1" source="LdxBgr8YAQ7VwyfjZo5r-1" target="LdxBgr8YAQ7VwyfjZo5r-2">
          <mxGeometry width="50" height="50" relative="1" as="geometry">
            <mxPoint x="550" y="360" as="sourcePoint" />
            <mxPoint x="358" y="360" as="targetPoint" />
          </mxGeometry>
        </mxCell>
        <mxCell id="LdxBgr8YAQ7VwyfjZo5r-44" value="&lt;font style=&quot;font-size: 18px;&quot;&gt;服务注册&lt;/font&gt;" style="rounded=0;whiteSpace=wrap;html=1;" vertex="1" parent="1">
          <mxGeometry x="310" y="140" width="120" height="60" as="geometry" />
        </mxCell>
        <mxCell id="LdxBgr8YAQ7VwyfjZo5r-45" value="&lt;span style=&quot;font-size: 18px;&quot;&gt;服务暴露&lt;/span&gt;" style="rounded=0;whiteSpace=wrap;html=1;" vertex="1" parent="1">
          <mxGeometry x="611.5" y="640" width="131" height="60" as="geometry" />
        </mxCell>
        <mxCell id="LdxBgr8YAQ7VwyfjZo5r-46" value="&lt;font style=&quot;font-size: 18px;&quot;&gt;代理调用&lt;/font&gt;" style="rounded=0;whiteSpace=wrap;html=1;" vertex="1" parent="1">
          <mxGeometry x="89" y="740" width="120" height="60" as="geometry" />
        </mxCell>
        <mxCell id="LdxBgr8YAQ7VwyfjZo5r-47" value="&lt;font style=&quot;font-size: 18px;&quot;&gt;注册服务&lt;/font&gt;" style="text;html=1;align=center;verticalAlign=middle;resizable=0;points=[];autosize=1;strokeColor=none;fillColor=none;" vertex="1" parent="1">
          <mxGeometry x="440" y="520" width="100" height="40" as="geometry" />
        </mxCell>
        <mxCell id="LdxBgr8YAQ7VwyfjZo5r-48" value="&lt;font style=&quot;font-size: 18px;&quot;&gt;发送心跳包&lt;/font&gt;" style="text;html=1;align=center;verticalAlign=middle;resizable=0;points=[];autosize=1;strokeColor=none;fillColor=none;" vertex="1" parent="1">
          <mxGeometry x="465" y="560" width="110" height="40" as="geometry" />
        </mxCell>
        <mxCell id="LdxBgr8YAQ7VwyfjZo5r-49" value="&lt;font style=&quot;font-size: 18px;&quot;&gt;请求注册服务&lt;/font&gt;" style="text;html=1;align=center;verticalAlign=middle;resizable=0;points=[];autosize=1;strokeColor=none;fillColor=none;" vertex="1" parent="1">
          <mxGeometry x="540" y="240" width="130" height="40" as="geometry" />
        </mxCell>
        <mxCell id="LdxBgr8YAQ7VwyfjZo5r-50" value="&lt;font style=&quot;font-size: 18px;&quot;&gt;传递心跳包&lt;/font&gt;" style="text;html=1;align=center;verticalAlign=middle;resizable=0;points=[];autosize=1;strokeColor=none;fillColor=none;" vertex="1" parent="1">
          <mxGeometry x="540" y="270" width="110" height="40" as="geometry" />
        </mxCell>
        <mxCell id="LdxBgr8YAQ7VwyfjZo5r-51" value="&lt;font style=&quot;font-size: 18px;&quot;&gt;发送服务提供者信息&lt;/font&gt;" style="text;html=1;align=center;verticalAlign=middle;resizable=0;points=[];autosize=1;strokeColor=none;fillColor=none;" vertex="1" parent="1">
          <mxGeometry x="224" y="250" width="190" height="40" as="geometry" />
        </mxCell>
        <mxCell id="LdxBgr8YAQ7VwyfjZo5r-52" value="&lt;font style=&quot;font-size: 18px;&quot;&gt;服务发现&lt;/font&gt;" style="text;html=1;align=center;verticalAlign=middle;resizable=0;points=[];autosize=1;strokeColor=none;fillColor=none;" vertex="1" parent="1">
          <mxGeometry x="250" y="530" width="100" height="40" as="geometry" />
        </mxCell>
        <mxCell id="LdxBgr8YAQ7VwyfjZo5r-53" value="&lt;font style=&quot;font-size: 18px;&quot;&gt;请求发现服务&lt;/font&gt;" style="text;html=1;align=center;verticalAlign=middle;resizable=0;points=[];autosize=1;strokeColor=none;fillColor=none;" vertex="1" parent="1">
          <mxGeometry x="540" y="303" width="130" height="40" as="geometry" />
        </mxCell>
        <mxCell id="LdxBgr8YAQ7VwyfjZo5r-54" value="&lt;font style=&quot;font-size: 18px;&quot;&gt;返回服务提供者信息&lt;/font&gt;" style="text;html=1;align=center;verticalAlign=middle;resizable=0;points=[];autosize=1;strokeColor=none;fillColor=none;" vertex="1" parent="1">
          <mxGeometry x="35" y="493" width="190" height="40" as="geometry" />
        </mxCell>
        <mxCell id="LdxBgr8YAQ7VwyfjZo5r-56" value="&lt;font style=&quot;font-size: 18px;&quot;&gt;通告服务失活&lt;/font&gt;" style="text;html=1;align=center;verticalAlign=middle;resizable=0;points=[];autosize=1;strokeColor=none;fillColor=none;" vertex="1" parent="1">
          <mxGeometry x="635" y="493" width="130" height="40" as="geometry" />
        </mxCell>
      </root>
    </mxGraphModel>
  </diagram>
</mxfile>
